<svg xmlns="http://www.w3.org/2000/svg" width="157" height="39" viewBox="0 0 157 39">
    <path fill="#000" fill-rule="nonzero" d="M48.486 26.921L54.964 9.49a4.23 4.23 0 0 1 1.362-1.92c.59-.481 1.33-.741 2.09-.734a3.156 3.156 0 0 1 2.125.733c.62.511 1.08 1.19 1.323 1.957l6.308 17.432c.152.379.235.78.245 1.188 0 .384-.108.76-.315 1.083a2.025 2.025 0 0 1-.8.733 2.52 2.52 0 0 1-1.116.278 2.296 2.296 0 0 1-2.37-1.64l-.976-3.005h-8.953l-.976 2.97a2.195 2.195 0 0 1-2.3 1.678 2.314 2.314 0 0 1-1.673-.664 2.13 2.13 0 0 1-.696-1.572c.028-.372.11-.736.244-1.083v-.002zm9.86-15.09l-3.031 9.293h6.096l-2.996-9.294h-.069zm11.427 20.611V15.357a2.788 2.788 0 0 1 .627-1.85 2.048 2.048 0 0 1 1.672-.7 2.23 2.23 0 0 1 2.335 1.921 4.042 4.042 0 0 1 1.846-1.57 5.806 5.806 0 0 1 2.544-.524 6.594 6.594 0 0 1 4.076 1.292 7.892 7.892 0 0 1 2.54 3.387c.582 1.406.877 2.915.87 4.436a9.577 9.577 0 0 1-.94 4.194 8.177 8.177 0 0 1-2.716 3.248 6.664 6.664 0 0 1-3.97 1.226c-.764 0-1.52-.142-2.231-.42a6.561 6.561 0 0 1-2.02-1.189v3.599c0 .46-.108.915-.313 1.327a2.12 2.12 0 0 1-.837.91 2.32 2.32 0 0 1-1.185.313 2.153 2.153 0 0 1-1.673-.699 2.62 2.62 0 0 1-.626-1.816h.001zm4.634-11.04a6.022 6.022 0 0 0 .94 3.354 3.164 3.164 0 0 0 1.991 1.403 3.16 3.16 0 0 0 2.4-.424c.085-.07.18-.127.28-.172a4.476 4.476 0 0 0 1.254-1.748 6.188 6.188 0 0 0 0-4.47 4.197 4.197 0 0 0-1.219-1.783 3.126 3.126 0 0 0-1.985-.698 2.916 2.916 0 0 0-1.985.665 3.884 3.884 0 0 0-1.223 1.677 5.3 5.3 0 0 0-.45 2.2l-.003-.004zm14.981 6.252V17.038h-1.046a1.889 1.889 0 0 1-1.462-.56 1.945 1.945 0 0 1-.557-1.465c0-.537.214-1.053.592-1.433a1.861 1.861 0 0 1 1.427-.56h1.046v-2.762a2.787 2.787 0 0 1 .628-1.853 2.044 2.044 0 0 1 1.671-.698A2.198 2.198 0 0 1 93.71 8.93c.206.412.315.865.315 1.327v2.725h1.324a2.49 2.49 0 0 1 1.6.493c.442.379.676.951.628 1.535a1.832 1.832 0 0 1-.628 1.537 2.366 2.366 0 0 1-1.6.49h-1.324v10.621c0 .463-.11.917-.315 1.327a2.092 2.092 0 0 1-.837.91 2.31 2.31 0 0 1-1.185.316 2.16 2.16 0 0 1-1.671-.7 2.656 2.656 0 0 1-.628-1.851v-.006zM105.415 12.6a7.923 7.923 0 0 1 3.344.733 7.814 7.814 0 0 1 2.647 1.992 9.176 9.176 0 0 1 1.708 2.864 8.642 8.642 0 0 1 .592 3.387 10.298 10.298 0 0 1-.592 3.425 8.92 8.92 0 0 1-1.67 2.831 8.095 8.095 0 0 1-2.646 1.922 7.625 7.625 0 0 1-3.38.697 7.836 7.836 0 0 1-4.321-1.188 8.587 8.587 0 0 1-2.962-3.248 9.762 9.762 0 0 1-1.044-4.436c.005-1.144.205-2.28.592-3.355a9.773 9.773 0 0 1 1.707-2.9 7.914 7.914 0 0 1 6.029-2.724h-.004zm.002 4.226a2.937 2.937 0 0 0-1.986.7 4.041 4.041 0 0 0-1.256 1.781 6.413 6.413 0 0 0-.415 2.272 6.087 6.087 0 0 0 .415 2.237c.259.682.691 1.283 1.255 1.744a3.39 3.39 0 0 0 4.008 0 4.247 4.247 0 0 0 1.251-1.744 6.197 6.197 0 0 0 .002-4.475 3.976 3.976 0 0 0-1.253-1.782 3.129 3.129 0 0 0-2.02-.733h-.003.002zM117.921 5.89c.454.007.895.129 1.29.35.385.231.706.556.938.943.236.364.357.789.348 1.222a2.77 2.77 0 0 1-.765 1.887 2.477 2.477 0 0 1-3.52.104 3.598 3.598 0 0 0-.138-.14 2.659 2.659 0 0 1-.799-1.85 2.241 2.241 0 0 1 .8-1.744 2.622 2.622 0 0 1 1.85-.77l-.004-.002zm-2.298 21.764V15.357a2.779 2.779 0 0 1 .627-1.85 2.037 2.037 0 0 1 1.67-.698 2.195 2.195 0 0 1 2.02 1.222c.207.413.315.867.315 1.327v12.298c0 .462-.108.916-.315 1.327a2.092 2.092 0 0 1-.837.91c-.359.21-.769.318-1.185.316a2.163 2.163 0 0 1-1.672-.7 2.503 2.503 0 0 1-.628-1.85l.003-.003.002-.002zm23.028-19.737v19.737c0 .462-.108.916-.315 1.328-.18.379-.471.695-.832.91-.36.208-.768.316-1.184.313a2.154 2.154 0 0 1-2.3-1.921 4.395 4.395 0 0 1-1.812 1.572 5.952 5.952 0 0 1-2.44.56 6.68 6.68 0 0 1-3.97-1.223 8.442 8.442 0 0 1-2.72-3.249 9.688 9.688 0 0 1-.94-4.192c-.007-1.52.276-3.025.835-4.436a7.873 7.873 0 0 1 2.543-3.39 6.593 6.593 0 0 1 4.08-1.292 7.883 7.883 0 0 1 1.567.175c.52.106 1.025.281 1.498.523.491.237.95.543 1.357.91V7.95a2.78 2.78 0 0 1 .628-1.85 2.048 2.048 0 0 1 1.672-.698c.426 0 .845.107 1.22.313.356.223.643.538.837.91.182.407.278.847.278 1.292h-.002zm-4.634 13.486a5.523 5.523 0 0 0-.94-3.215 3.17 3.17 0 0 0-2.685-1.363 3.037 3.037 0 0 0-1.951.7 4.179 4.179 0 0 0-1.22 1.781 6.174 6.174 0 0 0-.418 2.237 5.203 5.203 0 0 0 .245 1.641c.145.547.38 1.067.696 1.537.292.445.685.815 1.147 1.08.46.281.995.415 1.535.385a3.034 3.034 0 0 0 2.019-.7 4.317 4.317 0 0 0 1.22-1.817c.22-.738.338-1.504.348-2.272v.002l.004.004zm20.87 1.676h-9.859a3.451 3.451 0 0 0 1.43 2.481c.862.587 1.888.881 2.927.84a4.991 4.991 0 0 0 1.778-.317c.63-.28 1.247-.594 1.845-.942a3.91 3.91 0 0 1 1.604-.594c.323.003.638.1.905.281.287.2.534.448.732.733.176.285.273.61.277.945a2.19 2.19 0 0 1-.658 1.43 6.363 6.363 0 0 1-1.777 1.258c-.802.392-1.643.695-2.509.91-.857.202-1.733.316-2.613.348a9.02 9.02 0 0 1-4.53-1.153 7.68 7.68 0 0 1-3.062-3.179 9.427 9.427 0 0 1-1.082-4.575 9.596 9.596 0 0 1 2.37-6.257 7.991 7.991 0 0 1 9.337-1.952 8.163 8.163 0 0 1 2.647 1.956 9.205 9.205 0 0 1 1.71 2.725c.381.946.592 1.95.627 2.97a1.88 1.88 0 0 1-2.094 2.096v-.003h-.005zm-9.961-3.107h7.35a4.2 4.2 0 0 0-1.149-2.55 3.432 3.432 0 0 0-2.543-.978 3.278 3.278 0 0 0-2.474.978 4.422 4.422 0 0 0-1.185 2.55h.001zM30.956 1.277A51.831 51.831 0 0 0 19.614 0 48.348 48.348 0 0 0 8.4 1.31c-3.58.837-6.025 2.818-6.928 6.442A47.877 47.877 0 0 0 0 19.497 49.511 49.511 0 0 0 1.34 31.04a8.431 8.431 0 0 0 6.76 6.676 50.19 50.19 0 0 0 22.555 0c3.58-.839 6.025-2.818 6.928-6.477a47.86 47.86 0 0 0 1.472-11.744A49.514 49.514 0 0 0 37.715 7.95a8.431 8.431 0 0 0-6.758-6.673zM9.873 23.054l-.303-.304a3.386 3.386 0 0 1-.768-1.878l-.167-9.664c-.034-.738.47-1.007 1.072-.568l9.17 6.643-8.568 6.14-.436-.37zm20.583-2.115a3.254 3.254 0 0 1-1.071 2.182l-8.703 6.913c-.625.47-1.483.47-2.108 0l-6.325-5.1-1.204-.94.005-.005 8.596-6.17 4.215-3.021 5.924-4.228c.502-.202.837.067.837.705l-.166 9.666v-.002z"/>
</svg>
