<svg xmlns="http://www.w3.org/2000/svg" width="117" height="29" viewBox="0 0 117 29">
    <path fill="#FFF" fill-rule="nonzero" d="M36.133 20.018L40.96 7.056a3.145 3.145 0 0 1 1.014-1.428c.44-.357.991-.551 1.557-.545a2.355 2.355 0 0 1 1.584.545c.463.38.805.885.986 1.455l4.702 12.962c.112.282.174.58.182.883 0 .286-.08.566-.235.806a1.508 1.508 0 0 1-.596.545 1.881 1.881 0 0 1-.832.207 1.71 1.71 0 0 1-1.766-1.22l-.728-2.234h-6.671l-.727 2.208a1.635 1.635 0 0 1-1.715 1.247 1.727 1.727 0 0 1-1.246-.493 1.582 1.582 0 0 1-.519-1.17c.021-.275.082-.546.182-.805zM43.48 8.797l-2.26 6.91h4.544l-2.233-6.91h-.051zm8.516 15.327V11.419c-.016-.5.15-.989.466-1.376.312-.357.774-.55 1.247-.52.864-.05 1.62.574 1.74 1.429a3.01 3.01 0 0 1 1.376-1.168 4.335 4.335 0 0 1 1.895-.39 4.921 4.921 0 0 1 3.038.961 5.87 5.87 0 0 1 1.893 2.519 8.493 8.493 0 0 1 .648 3.299 7.108 7.108 0 0 1-.7 3.118 6.084 6.084 0 0 1-2.024 2.415c-.864.611-1.901.93-2.96.912-.568 0-1.132-.106-1.662-.313a4.892 4.892 0 0 1-1.505-.883v2.675c0 .342-.08.68-.233.987a1.578 1.578 0 0 1-.624.677 1.731 1.731 0 0 1-.883.233 1.606 1.606 0 0 1-1.246-.52 1.946 1.946 0 0 1-.467-1.35zm3.453-8.21a4.47 4.47 0 0 0 .7 2.495c.337.531.871.907 1.484 1.043a2.36 2.36 0 0 0 1.788-.316.955.955 0 0 1 .21-.128c.413-.35.732-.797.934-1.3a4.592 4.592 0 0 0 0-3.324 3.121 3.121 0 0 0-.908-1.325 2.333 2.333 0 0 0-1.48-.519 2.176 2.176 0 0 0-1.48.495 2.889 2.889 0 0 0-.91 1.247 3.933 3.933 0 0 0-.337 1.635l-.001-.003zm11.164 4.65v-7.895h-.78a1.41 1.41 0 0 1-1.089-.415 1.445 1.445 0 0 1-.415-1.09c0-.4.16-.784.441-1.066a1.389 1.389 0 0 1 1.064-.416h.78V7.628c-.017-.501.15-.99.467-1.378a1.525 1.525 0 0 1 1.246-.519 1.638 1.638 0 0 1 1.506.909c.153.306.235.644.235.987v2.026h.986c.428-.019.85.11 1.193.367.329.282.504.707.468 1.141a1.36 1.36 0 0 1-.468 1.143c-.34.263-.764.392-1.193.365h-.986v7.897c0 .344-.082.682-.235.987-.135.284-.353.52-.624.677a1.724 1.724 0 0 1-.882.235 1.611 1.611 0 0 1-1.246-.52 1.972 1.972 0 0 1-.468-1.378v-.003zM78.558 9.368c.86-.002 1.71.184 2.492.545a5.822 5.822 0 0 1 1.972 1.482 6.82 6.82 0 0 1 1.273 2.13c.315.8.465 1.657.441 2.518a7.642 7.642 0 0 1-.441 2.547 6.63 6.63 0 0 1-1.244 2.105 6.032 6.032 0 0 1-1.972 1.429 5.693 5.693 0 0 1-2.52.518 5.849 5.849 0 0 1-3.22-.883 6.39 6.39 0 0 1-2.207-2.415 7.246 7.246 0 0 1-.778-3.3c.004-.85.153-1.694.442-2.493a7.264 7.264 0 0 1 1.272-2.156 5.903 5.903 0 0 1 4.492-2.027h-.002zm.001 3.143a2.191 2.191 0 0 0-1.48.52 3.005 3.005 0 0 0-.935 1.325 4.76 4.76 0 0 0-.31 1.689c-.003.57.103 1.133.31 1.663.192.508.514.954.934 1.297a2.53 2.53 0 0 0 2.987 0c.416-.345.738-.791.933-1.297a4.599 4.599 0 0 0 0-3.327 2.956 2.956 0 0 0-.933-1.325 2.335 2.335 0 0 0-1.506-.545h-.001.001zm9.318-8.131c.339.005.667.095.962.26.287.172.526.413.7.701.175.27.265.587.258.909a2.057 2.057 0 0 1-.57 1.403 1.848 1.848 0 0 1-2.726-.026 1.975 1.975 0 0 1-.595-1.376c-.006-.5.213-.978.596-1.297a1.956 1.956 0 0 1 1.378-.573l-.003-.001zm-1.712 16.184v-9.145c-.017-.5.15-.99.467-1.376a1.52 1.52 0 0 1 1.244-.519 1.636 1.636 0 0 1 1.506.91c.154.306.235.644.235.986v9.145c0 .343-.08.68-.235.986-.135.284-.353.52-.624.677a1.733 1.733 0 0 1-.882.235 1.613 1.613 0 0 1-1.247-.52 1.859 1.859 0 0 1-.468-1.377l.002-.001.002-.001zm17.161-14.677v14.677c0 .343-.08.68-.235.986a1.58 1.58 0 0 1-.62.677 1.743 1.743 0 0 1-.882.233 1.604 1.604 0 0 1-1.715-1.428c-.332.507-.8.911-1.35 1.169-.57.266-1.19.408-1.818.416a4.985 4.985 0 0 1-2.959-.91 6.28 6.28 0 0 1-2.027-2.415 7.19 7.19 0 0 1-.7-3.117 8.85 8.85 0 0 1 .622-3.3 5.856 5.856 0 0 1 1.896-2.52 4.921 4.921 0 0 1 3.04-.96c.392.004.784.047 1.168.13.388.078.763.209 1.116.388.366.177.708.405 1.011.677V5.912c-.016-.5.15-.99.468-1.376a1.528 1.528 0 0 1 1.247-.52c.317 0 .629.08.909.234.265.165.479.4.624.677.135.302.206.63.206.96zm-3.454 10.028a4.1 4.1 0 0 0-.7-2.39 2.364 2.364 0 0 0-2.001-1.014 2.267 2.267 0 0 0-1.454.52 3.107 3.107 0 0 0-.908 1.325 4.582 4.582 0 0 0-.312 1.663c-.005.414.056.828.182 1.22.108.407.284.794.518 1.143.218.331.511.606.855.804.344.208.742.308 1.144.285a2.264 2.264 0 0 0 1.505-.52 3.21 3.21 0 0 0 .91-1.35 6.177 6.177 0 0 0 .259-1.69v.001l.002.003zm15.554 1.246h-7.348c.072.741.46 1.415 1.066 1.845a3.623 3.623 0 0 0 2.181.624c.451.003.902-.077 1.325-.235.47-.208.93-.441 1.375-.7.362-.234.77-.386 1.196-.442.24.002.475.075.674.21.213.148.398.332.545.544.131.212.204.454.207.702a1.627 1.627 0 0 1-.49 1.064 4.742 4.742 0 0 1-1.325.935 9.434 9.434 0 0 1-1.87.677c-.638.15-1.29.235-1.947.258a6.734 6.734 0 0 1-3.375-.857 5.716 5.716 0 0 1-2.283-2.363 6.998 6.998 0 0 1-.806-3.403 7.127 7.127 0 0 1 1.766-4.652 5.964 5.964 0 0 1 6.958-1.452c.75.346 1.42.841 1.973 1.455.54.595.971 1.281 1.274 2.026a6.48 6.48 0 0 1 .467 2.209 1.396 1.396 0 0 1-1.56 1.558v-.002h-.003zm-7.424-2.31h5.478a3.12 3.12 0 0 0-.856-1.896 2.56 2.56 0 0 0-1.896-.728 2.446 2.446 0 0 0-1.844.728 3.285 3.285 0 0 0-.883 1.896h.001zM23.07.95A38.707 38.707 0 0 0 14.616 0 36.105 36.105 0 0 0 6.26.974c-2.668.623-4.49 2.096-5.163 4.79A35.527 35.527 0 0 0 0 14.498c-.006 2.89.329 5.77.998 8.583a6.276 6.276 0 0 0 5.037 4.965 37.482 37.482 0 0 0 16.81 0c2.667-.624 4.49-2.096 5.162-4.817a35.514 35.514 0 0 0 1.097-8.733 36.741 36.741 0 0 0-.998-8.584A6.277 6.277 0 0 0 23.07.949zM7.357 17.143l-.226-.226a2.515 2.515 0 0 1-.573-1.397l-.124-7.186c-.025-.548.35-.749.799-.422l6.833 4.94-6.384 4.565-.325-.274zm15.339-1.573a2.418 2.418 0 0 1-.799 1.622l-6.485 5.141c-.466.35-1.105.35-1.571 0L9.127 18.54l-.897-.698.004-.004 6.406-4.588 3.141-2.246 4.415-3.144c.374-.15.624.05.624.524l-.124 7.187z"/>
</svg>
